<svg width="80" height="80" fill="none" xmlns="http://www.w3.org/2000/svg"><g clip-path="url(#a)" fill="#fff"><path d="M3.939 34.453h62.594v7.207S79.22 39.067 79.97 48c.791 9.403-13.592 17.043-23.466 17.924l-6.243 4.843H19.759S11.2 63.096 7.425 53.585C3.553 43.815 3.94 34.453 3.94 34.453ZM19.99 62.768s-3.952-4.408-5.058-13.884c-.666-5.724-.632-9.77-3.002-9.77-3.003 0-1.946 5.067-1.107 9.477 1.2 6.3 4.133 11.092 9.167 14.177Zm39.906-2.204s16.595-4.628 15.252-12.415c-.598-3.466-9.641-1.836-9.641-1.836.079 4.627-5.61 14.251-5.61 14.251ZM30.421 0c1.423 3.268 10.534 4.74 12.126 11.567 1.545 6.61-4.698 11.753-7.227 14.4 0 0 .237-3.159 1.66-6.098 1.137-2.349 2.212-4.701 1.344-7.86-.933-3.374-6.875-7.233-7.903-12.008M1.31 74.733h65.478c1.721 0 2.08 2.6 0 2.6h-8.893c-1.435 0-1.936 2.667-4.519 2.667H17.948c-2.51 0-2.708-2.633-5.092-2.633H1.381c-1.936 0-1.721-2.634-.072-2.634Z"/></g><defs><clipPath id="a"><path fill="#fff" d="M0 0h80v80H0z"/></clipPath></defs></svg>