<svg width="80" height="80" viewBox="0 0 80 80" fill="none" xmlns="http://www.w3.org/2000/svg">
<g clip-path="url(#clip0_127:27)">
<path d="M3.93866 34.4533H66.5333V41.66C66.5333 41.66 79.2186 39.0667 79.9693 48C80.76 57.4027 66.3773 65.0427 56.5026 65.924L50.26 70.7667H19.7587C19.7587 70.7667 11.2 63.096 7.42532 53.5853C3.55332 43.8147 3.93866 34.4533 3.93866 34.4533ZM19.9907 62.768C19.9907 62.768 16.0387 58.36 14.9333 48.884C14.2667 43.16 14.3013 39.1147 11.9307 39.1147C8.92799 39.1147 9.98532 44.1813 10.824 48.5907C12.024 54.8907 14.9573 59.6827 19.9907 62.768ZM59.8973 60.564C59.8973 60.564 76.492 55.936 75.1493 48.1493C74.5506 44.6827 65.508 46.3133 65.508 46.3133C65.5866 50.94 59.8973 60.564 59.8973 60.564Z" fill="white"/>
<path d="M30.4213 0C31.844 3.268 40.9547 4.74 42.5467 11.5667C44.092 18.1773 37.8493 23.32 35.32 25.9667C35.32 25.9667 35.5573 22.808 36.98 19.8693C38.1173 17.52 39.192 15.168 38.324 12.0093C37.3907 8.63467 31.4493 4.776 30.4213 0.00133333" fill="white"/>
<path d="M1.30934 74.7333H66.788C68.5093 74.7333 68.868 77.3333 66.788 77.3333H57.8947C56.46 77.3333 55.9587 80 53.376 80H17.948C15.4373 80 15.24 77.3667 12.856 77.3667H1.38134C-0.554663 77.3667 -0.339997 74.7333 1.30934 74.7333Z" fill="white"/>
</g>
<defs>
<clipPath id="clip0_127:27">
<rect width="80" height="80" fill="white"/>
</clipPath>
</defs>
</svg>
